G04 EAGLE Gerber RS-274X export*
G75*
%MOMM*%
%FSLAX34Y34*%
%LPD*%
%INBottom Copper*%
%IPPOS*%
%AMOC8*
5,1,8,0,0,1.08239X$1,22.5*%
G01*
G04 Define Apertures*
%ADD10C,0.150000*%
%ADD11C,0.452400*%
%ADD12C,0.300000*%
D10*
X-1195255Y1080993D02*
X-1058140Y1080993D01*
X-198748Y535995D02*
X-176588Y535995D01*
X-157890Y517298D01*
X-1473640Y547768D02*
X-1483335Y547768D01*
X-1473640Y547768D02*
X-1470870Y544998D01*
X-1299823Y544998D01*
D11*
X-1058140Y1080993D03*
X-1195255Y1080993D03*
X-198748Y535995D03*
X-157890Y517298D03*
X-1483335Y547768D03*
X-1299823Y544998D03*
D10*
X-207058Y547768D02*
X-203595Y547768D01*
X-194593Y538765D01*
X-168970Y538765D01*
X-155120Y524915D01*
X-56093Y524915D01*
D11*
X-207058Y547768D03*
X-56093Y524915D03*
D10*
X-56093Y545690D02*
X-154428Y545690D01*
D11*
X-154428Y545690D03*
X-56093Y545690D03*
D10*
X-56785Y530455D02*
X-154428Y530455D01*
X-56785Y530455D02*
X-56093Y531148D01*
D11*
X-154428Y530455D03*
X-56093Y531148D03*
D10*
X-56093Y554000D02*
X-155813Y554000D01*
D11*
X-155813Y554000D03*
X-56093Y554000D03*
D10*
X-301930Y529070D02*
X-726433Y529070D01*
X-758288Y497215D01*
X-785295Y470208D02*
X-1100383Y470208D01*
X-1200795Y570620D01*
X-1203565Y570620D01*
X-1207028Y567158D01*
X-1207028Y563695D01*
X-1206335Y563003D01*
X-1206335Y560233D01*
X-1209798Y556770D01*
X-1259658Y556770D01*
X-1285280Y582393D01*
X-1288050Y582393D01*
X-1291513Y578930D01*
X-1291513Y512450D01*
X-1290128Y511065D01*
X-1290128Y508295D01*
X-1293590Y504833D01*
X-1445248Y504833D01*
X-1448710Y508295D01*
D11*
X-301930Y529070D03*
X-758288Y497215D03*
X-785295Y470208D03*
X-1448710Y508295D03*
D10*
X-200825Y549153D02*
X-198748Y549153D01*
X-200825Y549153D02*
X-234065Y582393D01*
X-769368Y582393D01*
X-780448Y593473D02*
X-803993Y593473D01*
X-857315Y646795D01*
X-1285973Y646795D01*
X-1288050Y648873D01*
D11*
X-198748Y549153D03*
X-769368Y582393D03*
X-780448Y593473D03*
X-1288050Y648873D03*
D10*
X-418270Y486828D02*
X-335863Y486828D01*
X-418270Y486828D02*
X-443893Y461205D01*
X-443893Y444585D01*
D11*
X-335863Y486828D03*
X-443893Y461205D03*
X-443893Y444585D03*
D12*
X-1227110Y1076838D02*
X-1493723Y1076838D01*
X-1227110Y1076838D02*
X-1195255Y1044983D01*
X-103875Y182820D02*
X-68558Y182820D01*
X-103875Y182820D02*
X-360793Y439738D01*
X-963268Y249993D02*
X-995815Y249993D01*
X-1004125Y258303D01*
X-1022130Y258303D01*
X-1181405Y417578D01*
X-1183483Y417578D01*
X-780448Y485443D02*
X-780448Y532533D01*
X-780448Y485443D02*
X-779755Y484750D01*
X-779755Y468130D01*
X-898865Y349020D01*
X-899558Y349020D01*
X-903020Y345558D01*
X-903020Y326860D01*
X-889170Y313010D01*
X-889170Y308855D01*
X-947340Y250685D01*
X-961883Y250685D01*
X-963268Y249993D01*
X-645410Y439045D02*
X-362178Y439045D01*
X-645410Y439045D02*
X-815765Y268690D01*
X-848313Y268690D01*
X-887785Y308163D01*
X-362178Y439045D02*
X-360793Y439738D01*
X-887785Y308163D02*
X-889170Y308855D01*
X-1195948Y651643D02*
X-1195948Y1043598D01*
X-1195255Y1044983D01*
D11*
X-1493723Y1076838D03*
X-1195255Y1044983D03*
X-68558Y182820D03*
X-360793Y439738D03*
X-963268Y249993D03*
X-1183483Y417578D03*
X-780448Y532533D03*
X-1195948Y651643D03*
D10*
X-1562973Y981965D02*
X-1575091Y994084D01*
X-1591365Y1010358D01*
X-1562973Y981965D02*
X-1562280Y981965D01*
X-1625990Y923795D02*
X-1625990Y880860D01*
X-1625990Y923795D02*
X-1634300Y932105D01*
X-1634300Y934875D01*
X-1575091Y994084D01*
X-1587903Y569235D02*
X-1587903Y504833D01*
X-1587903Y569235D02*
X-1619758Y601090D01*
X-1619758Y873935D01*
X-1625990Y880168D01*
X-1625990Y880860D01*
D11*
X-1591365Y1010358D03*
X-1562280Y981965D03*
X-1625990Y880860D03*
X-1587903Y504833D03*
D10*
X-915485Y148888D02*
X-871165Y148888D01*
X-915485Y148888D02*
X-932105Y165508D01*
X-966038Y165508D01*
X-968115Y163430D01*
X-973655Y163430D01*
X-984043Y173818D01*
X-984043Y228525D01*
X-1006895Y251378D01*
X-1112848Y251378D01*
X-1155090Y293620D01*
X-1466023Y551923D02*
X-1471563Y551923D01*
X-1466023Y551923D02*
X-1463945Y549845D01*
X-1330985Y549845D01*
X-1284588Y596243D01*
X-1245808Y596243D01*
X-1211183Y561618D01*
X-1619758Y878090D02*
X-1619758Y880860D01*
X-1619758Y878090D02*
X-1607293Y865625D01*
X-1607293Y592780D01*
X-1553970Y539458D01*
X-1174480Y390570D02*
X-1162015Y390570D01*
D11*
X-871165Y148888D03*
X-1155090Y293620D03*
X-1471563Y551923D03*
X-1211183Y561618D03*
X-1619758Y880860D03*
X-1553970Y539458D03*
X-1174480Y390570D03*
X-1162015Y390570D03*
D10*
X-927258Y164815D02*
X-866318Y164815D01*
X-927258Y164815D02*
X-930720Y168278D01*
X-967423Y168278D01*
X-969500Y166200D01*
X-972270Y166200D01*
X-981273Y175203D01*
X-981273Y229910D01*
X-1005510Y254148D01*
X-1109385Y254148D01*
X-1153705Y298468D01*
X-1221570Y298468D01*
X-1222263Y297775D01*
X-1202180Y500678D02*
X-1202180Y565773D01*
X-1202180Y500678D02*
X-1274200Y428658D01*
X-1317135Y470900D02*
X-1411315Y470900D01*
X-1317135Y470900D02*
X-1274893Y428658D01*
X-1274200Y428658D01*
X-1652305Y693193D02*
X-1652305Y912023D01*
X-1652305Y693193D02*
X-1622528Y663415D01*
X-1622528Y526993D01*
X-1571283Y475748D01*
X-1549123Y475748D01*
D11*
X-866318Y164815D03*
X-1222263Y297775D03*
X-1202180Y565773D03*
X-1274200Y428658D03*
X-1411315Y470900D03*
X-1652305Y912023D03*
X-1549123Y475748D03*
D10*
X-1629453Y931413D02*
X-1629453Y933490D01*
X-1629453Y931413D02*
X-1602445Y904405D01*
X-1602445Y673803D01*
X-1286665Y577545D02*
X-1286665Y447355D01*
X-1274200Y434890D01*
X-1201488Y389185D02*
X-1201488Y316473D01*
X-1336525Y626713D02*
X-1483335Y626713D01*
X-1336525Y626713D02*
X-1300515Y590703D01*
D11*
X-1629453Y933490D03*
X-1602445Y673803D03*
X-1286665Y577545D03*
X-1274200Y434890D03*
X-1201488Y316473D03*
X-1201488Y389185D03*
X-1483335Y626713D03*
X-1300515Y590703D03*
D12*
X-914793Y735435D02*
X-914793Y1075453D01*
X-914793Y735435D02*
X-774908Y595550D01*
X-774908Y368410D01*
X-840003Y303315D01*
D11*
X-914793Y1075453D03*
X-840003Y303315D03*
D10*
X-966223Y268690D02*
X-986120Y268690D01*
X-966223Y268690D02*
X-921490Y313423D01*
D11*
X-986120Y268690D03*
X-921490Y313423D03*
D10*
X-897480Y343480D02*
X-887093Y343480D01*
X-817843Y274230D01*
D11*
X-897480Y343480D03*
X-817843Y274230D03*
D10*
X-810225Y268690D02*
X-801915Y268690D01*
X-810225Y268690D02*
X-860085Y218830D01*
X-894018Y218830D01*
D11*
X-801915Y268690D03*
X-894018Y218830D03*
D10*
X-756210Y308163D02*
X-756210Y319935D01*
X-756210Y308163D02*
X-859393Y204980D01*
X-873935Y204980D01*
D11*
X-756210Y319935D03*
X-873935Y204980D03*
D10*
X-812303Y148888D02*
X-809533Y148888D01*
X-812303Y148888D02*
X-815073Y146118D01*
X-821305Y146118D01*
X-823383Y144040D01*
X-914793Y144040D01*
X-933490Y162738D01*
X-964653Y162738D01*
X-966730Y160660D01*
X-999970Y160660D01*
D11*
X-809533Y148888D03*
X-999970Y160660D03*
D10*
X-817150Y164815D02*
X-815073Y164815D01*
X-817150Y164815D02*
X-823383Y171048D01*
X-970885Y171048D01*
D11*
X-815073Y164815D03*
X-970885Y171048D03*
D10*
X-420348Y554000D02*
X-391955Y554000D01*
X-391263Y553308D01*
D11*
X-420348Y554000D03*
X-391263Y553308D03*
D10*
X-1495800Y590703D02*
X-1587903Y498600D01*
X-1495800Y590703D02*
X-1495800Y739590D01*
X-1213953Y1021438D01*
D11*
X-1587903Y498600D03*
X-1213953Y1021438D03*
D10*
X-1330293Y554693D02*
X-1462560Y554693D01*
X-1330293Y554693D02*
X-1285973Y599013D01*
X-1157168Y599013D01*
X-1144703Y586548D01*
X-1117695Y560233D02*
X-862163Y560233D01*
X-1117695Y560233D02*
X-1144010Y586548D01*
X-1144703Y586548D01*
D11*
X-1462560Y554693D03*
X-1144703Y586548D03*
X-862163Y560233D03*
D10*
X-1291513Y646103D02*
X-1362148Y646103D01*
X-1291513Y646103D02*
X-1283203Y637793D01*
X-852468Y637793D01*
X-801223Y586548D01*
D11*
X-1362148Y646103D03*
X-801223Y586548D03*
D10*
X-863548Y131575D02*
X-1073375Y131575D01*
X-1244423Y302623D01*
X-1250655Y302623D01*
X-1497878Y536688D02*
X-1497878Y582393D01*
X-1497878Y536688D02*
X-1257580Y296390D01*
D11*
X-863548Y131575D03*
X-1250655Y302623D03*
X-1497878Y582393D03*
X-1257580Y296390D03*
D10*
X-854545Y164815D02*
X-821305Y164815D01*
X-812995Y156505D01*
X-806763Y156505D01*
X-801915Y151658D01*
X-801915Y146118D01*
X-821305Y126728D01*
X-1074760Y126728D01*
X-1210490Y262458D01*
X-1564358Y439045D02*
X-1564358Y470900D01*
X-1564358Y439045D02*
X-1315058Y189745D01*
D11*
X-854545Y164815D03*
X-1210490Y262458D03*
X-1564358Y470900D03*
X-1315058Y189745D03*
D10*
X-878090Y175895D02*
X-855930Y175895D01*
X-878090Y175895D02*
X-928643Y226448D01*
X-923103Y232680D02*
X-923103Y266613D01*
X-923103Y232680D02*
X-928643Y227140D01*
X-928643Y226448D01*
X-1488183Y473670D02*
X-1488183Y475748D01*
X-1488183Y473670D02*
X-1325445Y310933D01*
X-976425Y226448D02*
X-928643Y226448D01*
X-988890Y227140D02*
X-1164785Y227140D01*
X-1265198Y327553D01*
X-1275585Y327553D01*
D11*
X-855930Y175895D03*
X-928643Y226448D03*
X-923103Y266613D03*
X-1488183Y475748D03*
X-1325445Y310933D03*
X-976425Y226448D03*
X-988890Y227140D03*
X-1275585Y327553D03*
D10*
X-1294975Y579623D02*
X-1283203Y591395D01*
X-1294975Y515220D02*
X-1294975Y509680D01*
X-1294975Y515220D02*
X-1294975Y579623D01*
X-1294975Y515220D02*
X-1454943Y515220D01*
D11*
X-1283203Y591395D03*
X-1294975Y509680D03*
X-1454943Y515220D03*
D10*
X-1458405Y650950D02*
X-1373228Y650950D01*
X-1357300Y635023D01*
X-868395Y635023D01*
X-846235Y612863D01*
D11*
X-1458405Y650950D03*
X-846235Y612863D03*
D10*
X-1479873Y650950D02*
X-1481950Y650950D01*
X-1486798Y655798D01*
X-1489568Y655798D01*
X-1493030Y652335D01*
X-1493030Y538765D01*
X-1078223Y123958D01*
X-153735Y123958D01*
D11*
X-1479873Y650950D03*
X-153735Y123958D03*
D12*
X-1488183Y640563D02*
X-1488183Y650950D01*
X-1488183Y640563D02*
X-1488875Y639870D01*
X-1488875Y540843D01*
X-1325445Y377413D01*
X-1020745Y263150D02*
X-945263Y263150D01*
X-1020745Y263150D02*
X-1180713Y423118D01*
X-1279048Y423118D01*
X-1324060Y378105D01*
X-1325445Y377413D01*
D11*
X-1488183Y650950D03*
X-1325445Y377413D03*
X-945263Y263150D03*
D10*
X-297083Y424503D02*
X-297083Y492368D01*
X-297083Y567850D01*
X-297083Y424503D02*
X-68558Y195978D01*
X-1455635Y637793D02*
X-1483335Y637793D01*
X-1455635Y637793D02*
X-1447325Y629483D01*
X-924488Y629483D01*
X-817150Y522145D01*
X-769368Y492368D02*
X-297083Y492368D01*
X-785295Y476440D02*
X-816458Y476440D01*
X-821998Y481980D01*
X-821998Y516605D01*
X-817150Y521453D01*
X-817150Y522145D01*
D11*
X-297083Y567850D03*
X-68558Y195978D03*
X-1483335Y637793D03*
X-817150Y522145D03*
X-769368Y492368D03*
X-785295Y476440D03*
D10*
X-301930Y577545D02*
X-300545Y577545D01*
X-64403Y341403D01*
X-64403Y209828D01*
X-144040Y101105D02*
X-144040Y38088D01*
X-115994Y129151D02*
X-63710Y181435D01*
X-115994Y129151D02*
X-144040Y101105D01*
X-63710Y181435D02*
X-63710Y209828D01*
X-64403Y209828D01*
X-116340Y129498D02*
X-115994Y129151D01*
X-1487490Y673803D02*
X-1490953Y673803D01*
X-1487490Y673803D02*
X-1445940Y632253D01*
X-921025Y632253D01*
X-821651Y532879D02*
X-808148Y519375D01*
X-821651Y532879D02*
X-921025Y632253D01*
X-767983Y577545D02*
X-301930Y577545D01*
X-767983Y577545D02*
X-769368Y576160D01*
X-780448Y574083D02*
X-821651Y532879D01*
D11*
X-301930Y577545D03*
X-64403Y209828D03*
X-144040Y38088D03*
X-116340Y129498D03*
X-1490953Y673803D03*
X-808148Y519375D03*
X-769368Y576160D03*
X-780448Y574083D03*
D10*
X-796375Y119110D02*
X-1294975Y119110D01*
X-1526270Y566465D02*
X-1526270Y650950D01*
X-1520038Y560233D02*
X-1520038Y400958D01*
X-1294975Y175895D01*
X-1294975Y119110D01*
D11*
X-796375Y119110D03*
X-1294975Y119110D03*
X-1526270Y650950D03*
X-1526270Y566465D03*
X-1520038Y560233D03*
D10*
X-1506880Y474363D02*
X-1506880Y425888D01*
X-1506880Y474363D02*
X-1505495Y475748D01*
D11*
X-1506880Y425888D03*
X-1505495Y475748D03*
D10*
X-824768Y148888D02*
X-816458Y148888D01*
X-811610Y153735D01*
X-808148Y153735D01*
X-804685Y150273D01*
X-804685Y147503D01*
X-815765Y136423D01*
X-919640Y136423D01*
X-941108Y157890D01*
D11*
X-824768Y148888D03*
X-941108Y157890D03*
D10*
X-918255Y141270D02*
X-819920Y141270D01*
X-918255Y141270D02*
X-934875Y157890D01*
D11*
X-819920Y141270D03*
X-934875Y157890D03*
D10*
X-816458Y482673D02*
X-785295Y482673D01*
X-816458Y482673D02*
X-817150Y483365D01*
D11*
X-785295Y482673D03*
X-817150Y483365D03*
M02*
