G04 EAGLE Gerber RS-274X export*
G75*
%MOMM*%
%FSLAX34Y34*%
%LPD*%
%INSoldermask Bottom*%
%IPPOS*%
%AMOC8*
5,1,8,0,0,1.08239X$1,22.5*%
G01*
G04 Define Apertures*
%ADD10C,0.853200*%
%ADD11C,0.655600*%
D10*
X-55222Y509546D03*
X-55222Y567346D03*
D11*
X-1058140Y1080993D03*
X-1195255Y1080993D03*
X-198748Y535995D03*
X-157890Y517298D03*
X-1483335Y547768D03*
X-1299823Y544998D03*
X-207058Y547768D03*
X-56093Y524915D03*
X-154428Y545690D03*
X-56093Y545690D03*
X-154428Y530455D03*
X-56093Y531148D03*
X-155813Y554000D03*
X-56093Y554000D03*
X-301930Y529070D03*
X-758288Y497215D03*
X-785295Y470208D03*
X-1448710Y508295D03*
X-198748Y549153D03*
X-769368Y582393D03*
X-780448Y593473D03*
X-1288050Y648873D03*
X-335863Y486828D03*
X-443893Y461205D03*
X-443893Y444585D03*
X-1493723Y1076838D03*
X-1195255Y1044983D03*
X-68558Y182820D03*
X-360793Y439738D03*
X-963268Y249993D03*
X-1183483Y417578D03*
X-780448Y532533D03*
X-1195948Y651643D03*
X-1591365Y1010358D03*
X-1562280Y981965D03*
X-1625990Y880860D03*
X-1587903Y504833D03*
X-871165Y148888D03*
X-1155090Y293620D03*
X-1471563Y551923D03*
X-1211183Y561618D03*
X-1619758Y880860D03*
X-1553970Y539458D03*
X-1174480Y390570D03*
X-1162015Y390570D03*
X-866318Y164815D03*
X-1222263Y297775D03*
X-1202180Y565773D03*
X-1274200Y428658D03*
X-1411315Y470900D03*
X-1652305Y912023D03*
X-1549123Y475748D03*
X-1629453Y933490D03*
X-1602445Y673803D03*
X-1286665Y577545D03*
X-1274200Y434890D03*
X-1201488Y316473D03*
X-1201488Y389185D03*
X-1483335Y626713D03*
X-1300515Y590703D03*
X-914793Y1075453D03*
X-840003Y303315D03*
X-986120Y268690D03*
X-921490Y313423D03*
X-897480Y343480D03*
X-817843Y274230D03*
X-801915Y268690D03*
X-894018Y218830D03*
X-756210Y319935D03*
X-873935Y204980D03*
X-809533Y148888D03*
X-999970Y160660D03*
X-815073Y164815D03*
X-970885Y171048D03*
X-420348Y554000D03*
X-391263Y553308D03*
X-1587903Y498600D03*
X-1213953Y1021438D03*
X-1462560Y554693D03*
X-1144703Y586548D03*
X-862163Y560233D03*
X-1362148Y646103D03*
X-801223Y586548D03*
X-863548Y131575D03*
X-1250655Y302623D03*
X-1497878Y582393D03*
X-1257580Y296390D03*
X-854545Y164815D03*
X-1210490Y262458D03*
X-1564358Y470900D03*
X-1315058Y189745D03*
X-855930Y175895D03*
X-928643Y226448D03*
X-923103Y266613D03*
X-1488183Y475748D03*
X-1325445Y310933D03*
X-976425Y226448D03*
X-988890Y227140D03*
X-1275585Y327553D03*
X-1283203Y591395D03*
X-1294975Y509680D03*
X-1454943Y515220D03*
X-1458405Y650950D03*
X-846235Y612863D03*
X-1479873Y650950D03*
X-153735Y123958D03*
X-1488183Y650950D03*
X-1325445Y377413D03*
X-945263Y263150D03*
X-297083Y567850D03*
X-68558Y195978D03*
X-1483335Y637793D03*
X-817150Y522145D03*
X-769368Y492368D03*
X-785295Y476440D03*
X-301930Y577545D03*
X-64403Y209828D03*
X-144040Y38088D03*
X-116340Y129498D03*
X-1490953Y673803D03*
X-808148Y519375D03*
X-769368Y576160D03*
X-780448Y574083D03*
X-796375Y119110D03*
X-1294975Y119110D03*
X-1526270Y650950D03*
X-1526270Y566465D03*
X-1520038Y560233D03*
X-1506880Y425888D03*
X-1505495Y475748D03*
X-824768Y148888D03*
X-941108Y157890D03*
X-819920Y141270D03*
X-934875Y157890D03*
X-785295Y482673D03*
X-817150Y483365D03*
M02*
