G04 EAGLE Gerber RS-274X export*
G75*
%MOMM*%
%FSLAX34Y34*%
%LPD*%
%INSolderpaste Top*%
%IPPOS*%
%AMOC8*
5,1,8,0,0,1.08239X$1,22.5*%
G01*
G04 Define Apertures*
%ADD10R,0.700000X0.900000*%
%ADD11R,1.200000X0.600000*%
%ADD12R,1.150000X0.300000*%
%ADD13R,2.000000X2.180000*%
%ADD14R,1.500000X3.600000*%
%ADD15R,0.900000X0.700000*%
%ADD16R,0.900000X0.800000*%
%ADD17R,0.800000X0.900000*%
%ADD18R,0.900000X0.600000*%
%ADD19R,2.200000X2.000000*%
%ADD20R,1.200000X1.800000*%
%ADD21R,1.900000X1.400000*%
%ADD22R,1.500000X0.700000*%
%ADD23R,1.168400X1.600200*%
%ADD24R,0.300000X0.300000*%
%ADD25R,1.150000X0.800000*%
%ADD26R,0.500000X1.050000*%
%ADD27R,1.200000X0.550000*%
%ADD28R,0.800000X0.800000*%
%ADD29R,0.900000X1.500000*%
%ADD30R,0.300000X0.800000*%
%ADD31R,0.400000X0.800000*%
%ADD32C,0.125000*%
%ADD33R,1.400000X1.050000*%
%ADD34R,0.560000X0.820000*%
%ADD35C,0.067500*%
%ADD36C,0.075000*%
%ADD37C,0.147500*%
%ADD38R,1.400000X1.400000*%
%ADD39R,2.000000X1.200000*%
%ADD40R,1.350000X0.600000*%
%ADD41R,0.940000X0.970000*%
%ADD42R,0.970000X0.940000*%
%ADD43R,1.010000X1.460000*%
%ADD44C,0.110000*%
D10*
X-172100Y508900D03*
X-159100Y508900D03*
X-172000Y497900D03*
X-159000Y497900D03*
D11*
X-189100Y548200D03*
X-189100Y538700D03*
X-189100Y529200D03*
X-164100Y529200D03*
X-164100Y538700D03*
X-164100Y548200D03*
D12*
X-67972Y500946D03*
X-67972Y510946D03*
X-65972Y525946D03*
X-65972Y535946D03*
X-65972Y540946D03*
X-65972Y550946D03*
X-67972Y565946D03*
X-67972Y575946D03*
X-67972Y571946D03*
X-67972Y561946D03*
X-65972Y555946D03*
X-65972Y545946D03*
X-65972Y530946D03*
X-65972Y520946D03*
X-67972Y514946D03*
X-67972Y504946D03*
D13*
X-20922Y487346D03*
X-20922Y589546D03*
X-60222Y487346D03*
X-60222Y589546D03*
D14*
X-202600Y471700D03*
X-157600Y471700D03*
D15*
X-147700Y552200D03*
X-147700Y565200D03*
X-215700Y536400D03*
X-215700Y549400D03*
X-501000Y447500D03*
X-501000Y460500D03*
D16*
X-484000Y443100D03*
X-484000Y464100D03*
D17*
X-350800Y495500D03*
X-331800Y495500D03*
X-341300Y516500D03*
D10*
X-467500Y419300D03*
X-480500Y419300D03*
D18*
X-452600Y458000D03*
X-452600Y448500D03*
X-452600Y439000D03*
X-424600Y439000D03*
X-424600Y458000D03*
D15*
X-352100Y441200D03*
X-352100Y454200D03*
D19*
X-389400Y421922D03*
X-389400Y451922D03*
D20*
X-1537078Y853078D03*
X-1537078Y910078D03*
D21*
X-1679578Y823078D03*
X-1669578Y954578D03*
D22*
X-1641078Y871078D03*
X-1637078Y882078D03*
X-1641078Y893078D03*
X-1643078Y904078D03*
X-1641078Y915078D03*
X-1643078Y926078D03*
X-1641078Y937078D03*
X-1641078Y948078D03*
D20*
X-1537078Y881578D03*
X-1537078Y938578D03*
D15*
X-1615300Y996900D03*
X-1615300Y1009900D03*
D23*
X-1040220Y119900D03*
X-1024980Y119900D03*
D15*
X-1004300Y128300D03*
X-1004300Y115300D03*
D24*
X-890200Y315760D03*
X-890200Y270040D03*
D10*
X-901800Y247000D03*
X-888800Y247000D03*
D25*
X-872400Y346200D03*
X-907400Y346200D03*
X-827400Y268100D03*
X-792400Y268100D03*
X-792400Y310000D03*
X-827400Y310000D03*
D15*
X-765300Y315700D03*
X-765300Y302700D03*
D10*
X-1031800Y141100D03*
X-1018800Y141100D03*
X-958800Y163000D03*
X-971800Y163000D03*
D26*
X-1006400Y164400D03*
X-993400Y164400D03*
X-999900Y185400D03*
D27*
X-381399Y550800D03*
X-381399Y560300D03*
X-381399Y569800D03*
X-407401Y569800D03*
X-407401Y550800D03*
D10*
X-440900Y554100D03*
X-427900Y554100D03*
D15*
X-414400Y519500D03*
X-414400Y532500D03*
D28*
X-427700Y568700D03*
X-442700Y568700D03*
D10*
X-521700Y557900D03*
X-508700Y557900D03*
D15*
X-355200Y586300D03*
X-355200Y573300D03*
D29*
X-1615324Y487300D03*
X-1602624Y487300D03*
X-1589924Y487300D03*
X-1577224Y487300D03*
X-1564524Y487300D03*
X-1551824Y487300D03*
X-1539124Y487300D03*
X-1526424Y487300D03*
X-1513724Y487300D03*
X-1501024Y487300D03*
X-1488324Y487300D03*
X-1475624Y487300D03*
X-1462924Y487300D03*
X-1450224Y487300D03*
X-1450224Y662300D03*
X-1462924Y662300D03*
X-1475624Y662300D03*
X-1488324Y662300D03*
X-1501024Y662300D03*
X-1513724Y662300D03*
X-1526424Y662300D03*
X-1539124Y662300D03*
X-1551824Y662300D03*
X-1564524Y662300D03*
X-1577224Y662300D03*
X-1589924Y662300D03*
X-1602624Y662300D03*
X-1615324Y662300D03*
D28*
X-1558124Y559750D03*
X-1570624Y547250D03*
X-1570624Y559750D03*
X-1570624Y572250D03*
X-1558124Y547250D03*
X-1558124Y572250D03*
X-1545624Y547250D03*
X-1545624Y559750D03*
X-1545624Y572250D03*
D15*
X-1498400Y422500D03*
X-1498400Y435500D03*
D30*
X-804776Y157000D03*
X-809776Y157000D03*
X-814776Y157000D03*
X-819776Y157000D03*
X-824776Y157000D03*
X-829776Y157000D03*
X-834776Y157000D03*
X-839776Y157000D03*
X-844776Y157000D03*
X-849776Y157000D03*
X-854776Y157000D03*
X-859776Y157000D03*
X-864776Y157000D03*
X-869776Y157000D03*
X-874776Y157000D03*
X-879776Y157000D03*
X-884776Y157000D03*
X-889776Y157000D03*
X-894776Y157000D03*
X-899776Y157000D03*
X-904776Y157000D03*
X-909776Y157000D03*
X-914776Y157000D03*
X-919776Y157000D03*
D31*
X-794776Y132000D03*
X-929776Y132000D03*
D15*
X-886752Y226000D03*
X-886752Y213000D03*
X-917800Y225900D03*
X-917800Y212900D03*
X-902276Y225800D03*
X-902276Y212800D03*
X-871228Y225700D03*
X-871228Y212700D03*
X-854704Y225600D03*
X-854704Y212600D03*
X-837800Y225500D03*
X-837800Y212500D03*
X-821800Y225400D03*
X-821800Y212400D03*
X-805276Y225300D03*
X-805276Y212300D03*
X-968800Y202200D03*
X-968800Y189200D03*
X-953800Y202100D03*
X-953800Y189100D03*
D16*
X-936100Y266000D03*
X-936100Y247000D03*
X-915100Y256500D03*
D15*
X-953800Y262800D03*
X-953800Y249800D03*
D32*
X-144725Y135735D02*
X-144725Y126825D01*
X-148475Y126825D01*
X-148475Y135735D01*
X-144725Y135735D01*
X-144725Y128012D02*
X-148475Y128012D01*
X-148475Y129199D02*
X-144725Y129199D01*
X-144725Y130386D02*
X-148475Y130386D01*
X-148475Y131573D02*
X-144725Y131573D01*
X-144725Y132760D02*
X-148475Y132760D01*
X-148475Y133947D02*
X-144725Y133947D01*
X-144725Y135134D02*
X-148475Y135134D01*
X-136725Y135735D02*
X-136725Y126825D01*
X-140475Y126825D01*
X-140475Y135735D01*
X-136725Y135735D01*
X-136725Y128012D02*
X-140475Y128012D01*
X-140475Y129199D02*
X-136725Y129199D01*
X-136725Y130386D02*
X-140475Y130386D01*
X-140475Y131573D02*
X-136725Y131573D01*
X-136725Y132760D02*
X-140475Y132760D01*
X-140475Y133947D02*
X-136725Y133947D01*
X-136725Y135134D02*
X-140475Y135134D01*
X-128725Y135735D02*
X-128725Y126825D01*
X-132475Y126825D01*
X-132475Y135735D01*
X-128725Y135735D01*
X-128725Y128012D02*
X-132475Y128012D01*
X-132475Y129199D02*
X-128725Y129199D01*
X-128725Y130386D02*
X-132475Y130386D01*
X-132475Y131573D02*
X-128725Y131573D01*
X-128725Y132760D02*
X-132475Y132760D01*
X-132475Y133947D02*
X-128725Y133947D01*
X-128725Y135134D02*
X-132475Y135134D01*
X-120725Y135735D02*
X-120725Y126825D01*
X-124475Y126825D01*
X-124475Y135735D01*
X-120725Y135735D01*
X-120725Y128012D02*
X-124475Y128012D01*
X-124475Y129199D02*
X-120725Y129199D01*
X-120725Y130386D02*
X-124475Y130386D01*
X-124475Y131573D02*
X-120725Y131573D01*
X-120725Y132760D02*
X-124475Y132760D01*
X-124475Y133947D02*
X-120725Y133947D01*
X-120725Y135134D02*
X-124475Y135134D01*
X-120525Y106575D02*
X-120525Y97665D01*
X-124275Y97665D01*
X-124275Y106575D01*
X-120525Y106575D01*
X-120525Y98852D02*
X-124275Y98852D01*
X-124275Y100039D02*
X-120525Y100039D01*
X-120525Y101226D02*
X-124275Y101226D01*
X-124275Y102413D02*
X-120525Y102413D01*
X-120525Y103600D02*
X-124275Y103600D01*
X-124275Y104787D02*
X-120525Y104787D01*
X-120525Y105974D02*
X-124275Y105974D01*
X-128725Y106575D02*
X-128725Y97665D01*
X-132475Y97665D01*
X-132475Y106575D01*
X-128725Y106575D01*
X-128725Y98852D02*
X-132475Y98852D01*
X-132475Y100039D02*
X-128725Y100039D01*
X-128725Y101226D02*
X-132475Y101226D01*
X-132475Y102413D02*
X-128725Y102413D01*
X-128725Y103600D02*
X-132475Y103600D01*
X-132475Y104787D02*
X-128725Y104787D01*
X-128725Y105974D02*
X-132475Y105974D01*
X-136725Y106575D02*
X-136725Y97665D01*
X-140475Y97665D01*
X-140475Y106575D01*
X-136725Y106575D01*
X-136725Y98852D02*
X-140475Y98852D01*
X-140475Y100039D02*
X-136725Y100039D01*
X-136725Y101226D02*
X-140475Y101226D01*
X-140475Y102413D02*
X-136725Y102413D01*
X-136725Y103600D02*
X-140475Y103600D01*
X-140475Y104787D02*
X-136725Y104787D01*
X-136725Y105974D02*
X-140475Y105974D01*
X-144725Y106575D02*
X-144725Y97665D01*
X-148475Y97665D01*
X-148475Y106575D01*
X-144725Y106575D01*
X-144725Y98852D02*
X-148475Y98852D01*
X-148475Y100039D02*
X-144725Y100039D01*
X-144725Y101226D02*
X-148475Y101226D01*
X-148475Y102413D02*
X-144725Y102413D01*
X-144725Y103600D02*
X-148475Y103600D01*
X-148475Y104787D02*
X-144725Y104787D01*
X-144725Y105974D02*
X-148475Y105974D01*
D15*
X-144076Y45700D03*
X-144076Y58700D03*
X-154600Y45676D03*
X-154600Y58676D03*
X-133552Y45724D03*
X-133552Y58724D03*
X-123076Y45700D03*
X-123076Y58700D03*
D18*
X-1213200Y1014900D03*
X-1213200Y1005400D03*
X-1213200Y995900D03*
X-1185200Y995900D03*
X-1185200Y1014900D03*
D15*
X-1168300Y1015100D03*
X-1168300Y1002100D03*
X-1166300Y1089000D03*
X-1166300Y1076000D03*
D33*
X-1184100Y1095828D03*
X-1219100Y1095828D03*
X-1219100Y1080828D03*
X-1184100Y1080828D03*
D15*
X-1236300Y1089700D03*
X-1236300Y1076700D03*
X-1485124Y1089299D03*
X-1485124Y1076299D03*
D33*
X-1434100Y1095828D03*
X-1469100Y1095828D03*
X-1469100Y1080828D03*
X-1434100Y1080828D03*
D15*
X-1417076Y1089400D03*
X-1417076Y1076400D03*
X-1086300Y1087100D03*
X-1086300Y1074100D03*
D33*
X-1034100Y1095828D03*
X-1069100Y1095828D03*
X-1069100Y1080828D03*
X-1034100Y1080828D03*
D15*
X-1018300Y1087000D03*
X-1018300Y1074000D03*
D34*
X-320600Y582000D03*
D35*
X-326987Y588487D02*
X-333913Y588487D01*
X-333913Y590513D01*
X-326987Y590513D01*
X-326987Y588487D01*
X-326987Y589128D02*
X-333913Y589128D01*
X-333913Y589769D02*
X-326987Y589769D01*
X-326987Y590410D02*
X-333913Y590410D01*
D36*
X-333875Y583375D02*
X-327025Y583375D01*
X-333875Y583375D02*
X-333875Y585625D01*
X-327025Y585625D01*
X-327025Y583375D01*
X-327025Y584087D02*
X-333875Y584087D01*
X-333875Y584799D02*
X-327025Y584799D01*
X-327025Y585511D02*
X-333875Y585511D01*
X-333875Y578375D02*
X-327025Y578375D01*
X-333875Y578375D02*
X-333875Y580625D01*
X-327025Y580625D01*
X-327025Y578375D01*
X-327025Y579087D02*
X-333875Y579087D01*
X-333875Y579799D02*
X-327025Y579799D01*
X-327025Y580511D02*
X-333875Y580511D01*
D35*
X-333913Y573487D02*
X-326987Y573487D01*
X-333913Y573487D02*
X-333913Y575513D01*
X-326987Y575513D01*
X-326987Y573487D01*
X-326987Y574128D02*
X-333913Y574128D01*
X-333913Y574769D02*
X-326987Y574769D01*
X-326987Y575410D02*
X-333913Y575410D01*
X-314213Y573487D02*
X-307287Y573487D01*
X-314213Y573487D02*
X-314213Y575513D01*
X-307287Y575513D01*
X-307287Y573487D01*
X-307287Y574128D02*
X-314213Y574128D01*
X-314213Y574769D02*
X-307287Y574769D01*
X-307287Y575410D02*
X-314213Y575410D01*
X-314213Y578487D02*
X-307287Y578487D01*
X-314213Y578487D02*
X-314213Y580513D01*
X-307287Y580513D01*
X-307287Y578487D01*
X-307287Y579128D02*
X-314213Y579128D01*
X-314213Y579769D02*
X-307287Y579769D01*
X-307287Y580410D02*
X-314213Y580410D01*
X-314213Y583487D02*
X-307287Y583487D01*
X-314213Y583487D02*
X-314213Y585513D01*
X-307287Y585513D01*
X-307287Y583487D01*
X-307287Y584128D02*
X-314213Y584128D01*
X-314213Y584769D02*
X-307287Y584769D01*
X-307287Y585410D02*
X-314213Y585410D01*
X-314213Y588487D02*
X-307287Y588487D01*
X-314213Y588487D02*
X-314213Y590513D01*
X-307287Y590513D01*
X-307287Y588487D01*
X-307287Y589128D02*
X-314213Y589128D01*
X-314213Y589769D02*
X-307287Y589769D01*
X-307287Y590410D02*
X-314213Y590410D01*
D37*
X-803963Y591315D02*
X-803963Y610341D01*
X-799537Y610341D01*
X-799537Y591315D01*
X-803963Y591315D01*
X-803963Y592716D02*
X-799537Y592716D01*
X-799537Y594117D02*
X-803963Y594117D01*
X-803963Y595518D02*
X-799537Y595518D01*
X-799537Y596919D02*
X-803963Y596919D01*
X-803963Y598320D02*
X-799537Y598320D01*
X-799537Y599721D02*
X-803963Y599721D01*
X-803963Y601122D02*
X-799537Y601122D01*
X-799537Y602523D02*
X-803963Y602523D01*
X-803963Y603924D02*
X-799537Y603924D01*
X-799537Y605325D02*
X-803963Y605325D01*
X-803963Y606726D02*
X-799537Y606726D01*
X-799537Y608127D02*
X-803963Y608127D01*
X-803963Y609528D02*
X-799537Y609528D01*
X-816663Y610341D02*
X-816663Y591315D01*
X-816663Y610341D02*
X-812237Y610341D01*
X-812237Y591315D01*
X-816663Y591315D01*
X-816663Y592716D02*
X-812237Y592716D01*
X-812237Y594117D02*
X-816663Y594117D01*
X-816663Y595518D02*
X-812237Y595518D01*
X-812237Y596919D02*
X-816663Y596919D01*
X-816663Y598320D02*
X-812237Y598320D01*
X-812237Y599721D02*
X-816663Y599721D01*
X-816663Y601122D02*
X-812237Y601122D01*
X-812237Y602523D02*
X-816663Y602523D01*
X-816663Y603924D02*
X-812237Y603924D01*
X-812237Y605325D02*
X-816663Y605325D01*
X-816663Y606726D02*
X-812237Y606726D01*
X-812237Y608127D02*
X-816663Y608127D01*
X-816663Y609528D02*
X-812237Y609528D01*
X-829363Y610341D02*
X-829363Y591315D01*
X-829363Y610341D02*
X-824937Y610341D01*
X-824937Y591315D01*
X-829363Y591315D01*
X-829363Y592716D02*
X-824937Y592716D01*
X-824937Y594117D02*
X-829363Y594117D01*
X-829363Y595518D02*
X-824937Y595518D01*
X-824937Y596919D02*
X-829363Y596919D01*
X-829363Y598320D02*
X-824937Y598320D01*
X-824937Y599721D02*
X-829363Y599721D01*
X-829363Y601122D02*
X-824937Y601122D01*
X-824937Y602523D02*
X-829363Y602523D01*
X-829363Y603924D02*
X-824937Y603924D01*
X-824937Y605325D02*
X-829363Y605325D01*
X-829363Y606726D02*
X-824937Y606726D01*
X-824937Y608127D02*
X-829363Y608127D01*
X-829363Y609528D02*
X-824937Y609528D01*
X-842063Y610341D02*
X-842063Y591315D01*
X-842063Y610341D02*
X-837637Y610341D01*
X-837637Y591315D01*
X-842063Y591315D01*
X-842063Y592716D02*
X-837637Y592716D01*
X-837637Y594117D02*
X-842063Y594117D01*
X-842063Y595518D02*
X-837637Y595518D01*
X-837637Y596919D02*
X-842063Y596919D01*
X-842063Y598320D02*
X-837637Y598320D01*
X-837637Y599721D02*
X-842063Y599721D01*
X-842063Y601122D02*
X-837637Y601122D01*
X-837637Y602523D02*
X-842063Y602523D01*
X-842063Y603924D02*
X-837637Y603924D01*
X-837637Y605325D02*
X-842063Y605325D01*
X-842063Y606726D02*
X-837637Y606726D01*
X-837637Y608127D02*
X-842063Y608127D01*
X-842063Y609528D02*
X-837637Y609528D01*
X-854763Y610341D02*
X-854763Y591315D01*
X-854763Y610341D02*
X-850337Y610341D01*
X-850337Y591315D01*
X-854763Y591315D01*
X-854763Y592716D02*
X-850337Y592716D01*
X-850337Y594117D02*
X-854763Y594117D01*
X-854763Y595518D02*
X-850337Y595518D01*
X-850337Y596919D02*
X-854763Y596919D01*
X-854763Y598320D02*
X-850337Y598320D01*
X-850337Y599721D02*
X-854763Y599721D01*
X-854763Y601122D02*
X-850337Y601122D01*
X-850337Y602523D02*
X-854763Y602523D01*
X-854763Y603924D02*
X-850337Y603924D01*
X-850337Y605325D02*
X-854763Y605325D01*
X-854763Y606726D02*
X-850337Y606726D01*
X-850337Y608127D02*
X-854763Y608127D01*
X-854763Y609528D02*
X-850337Y609528D01*
X-867463Y610341D02*
X-867463Y591315D01*
X-867463Y610341D02*
X-863037Y610341D01*
X-863037Y591315D01*
X-867463Y591315D01*
X-867463Y592716D02*
X-863037Y592716D01*
X-863037Y594117D02*
X-867463Y594117D01*
X-867463Y595518D02*
X-863037Y595518D01*
X-863037Y596919D02*
X-867463Y596919D01*
X-867463Y598320D02*
X-863037Y598320D01*
X-863037Y599721D02*
X-867463Y599721D01*
X-867463Y601122D02*
X-863037Y601122D01*
X-863037Y602523D02*
X-867463Y602523D01*
X-867463Y603924D02*
X-863037Y603924D01*
X-863037Y605325D02*
X-867463Y605325D01*
X-867463Y606726D02*
X-863037Y606726D01*
X-863037Y608127D02*
X-867463Y608127D01*
X-867463Y609528D02*
X-863037Y609528D01*
X-880163Y610341D02*
X-880163Y591315D01*
X-880163Y610341D02*
X-875737Y610341D01*
X-875737Y591315D01*
X-880163Y591315D01*
X-880163Y592716D02*
X-875737Y592716D01*
X-875737Y594117D02*
X-880163Y594117D01*
X-880163Y595518D02*
X-875737Y595518D01*
X-875737Y596919D02*
X-880163Y596919D01*
X-880163Y598320D02*
X-875737Y598320D01*
X-875737Y599721D02*
X-880163Y599721D01*
X-880163Y601122D02*
X-875737Y601122D01*
X-875737Y602523D02*
X-880163Y602523D01*
X-880163Y603924D02*
X-875737Y603924D01*
X-875737Y605325D02*
X-880163Y605325D01*
X-880163Y606726D02*
X-875737Y606726D01*
X-875737Y608127D02*
X-880163Y608127D01*
X-880163Y609528D02*
X-875737Y609528D01*
X-892863Y610341D02*
X-892863Y591315D01*
X-892863Y610341D02*
X-888437Y610341D01*
X-888437Y591315D01*
X-892863Y591315D01*
X-892863Y592716D02*
X-888437Y592716D01*
X-888437Y594117D02*
X-892863Y594117D01*
X-892863Y595518D02*
X-888437Y595518D01*
X-888437Y596919D02*
X-892863Y596919D01*
X-892863Y598320D02*
X-888437Y598320D01*
X-888437Y599721D02*
X-892863Y599721D01*
X-892863Y601122D02*
X-888437Y601122D01*
X-888437Y602523D02*
X-892863Y602523D01*
X-892863Y603924D02*
X-888437Y603924D01*
X-888437Y605325D02*
X-892863Y605325D01*
X-892863Y606726D02*
X-888437Y606726D01*
X-888437Y608127D02*
X-892863Y608127D01*
X-892863Y609528D02*
X-888437Y609528D01*
X-892863Y517241D02*
X-892863Y498215D01*
X-892863Y517241D02*
X-888437Y517241D01*
X-888437Y498215D01*
X-892863Y498215D01*
X-892863Y499616D02*
X-888437Y499616D01*
X-888437Y501017D02*
X-892863Y501017D01*
X-892863Y502418D02*
X-888437Y502418D01*
X-888437Y503819D02*
X-892863Y503819D01*
X-892863Y505220D02*
X-888437Y505220D01*
X-888437Y506621D02*
X-892863Y506621D01*
X-892863Y508022D02*
X-888437Y508022D01*
X-888437Y509423D02*
X-892863Y509423D01*
X-892863Y510824D02*
X-888437Y510824D01*
X-888437Y512225D02*
X-892863Y512225D01*
X-892863Y513626D02*
X-888437Y513626D01*
X-888437Y515027D02*
X-892863Y515027D01*
X-892863Y516428D02*
X-888437Y516428D01*
X-880163Y517241D02*
X-880163Y498215D01*
X-880163Y517241D02*
X-875737Y517241D01*
X-875737Y498215D01*
X-880163Y498215D01*
X-880163Y499616D02*
X-875737Y499616D01*
X-875737Y501017D02*
X-880163Y501017D01*
X-880163Y502418D02*
X-875737Y502418D01*
X-875737Y503819D02*
X-880163Y503819D01*
X-880163Y505220D02*
X-875737Y505220D01*
X-875737Y506621D02*
X-880163Y506621D01*
X-880163Y508022D02*
X-875737Y508022D01*
X-875737Y509423D02*
X-880163Y509423D01*
X-880163Y510824D02*
X-875737Y510824D01*
X-875737Y512225D02*
X-880163Y512225D01*
X-880163Y513626D02*
X-875737Y513626D01*
X-875737Y515027D02*
X-880163Y515027D01*
X-880163Y516428D02*
X-875737Y516428D01*
X-867463Y517241D02*
X-867463Y498215D01*
X-867463Y517241D02*
X-863037Y517241D01*
X-863037Y498215D01*
X-867463Y498215D01*
X-867463Y499616D02*
X-863037Y499616D01*
X-863037Y501017D02*
X-867463Y501017D01*
X-867463Y502418D02*
X-863037Y502418D01*
X-863037Y503819D02*
X-867463Y503819D01*
X-867463Y505220D02*
X-863037Y505220D01*
X-863037Y506621D02*
X-867463Y506621D01*
X-867463Y508022D02*
X-863037Y508022D01*
X-863037Y509423D02*
X-867463Y509423D01*
X-867463Y510824D02*
X-863037Y510824D01*
X-863037Y512225D02*
X-867463Y512225D01*
X-867463Y513626D02*
X-863037Y513626D01*
X-863037Y515027D02*
X-867463Y515027D01*
X-867463Y516428D02*
X-863037Y516428D01*
X-854763Y517241D02*
X-854763Y498215D01*
X-854763Y517241D02*
X-850337Y517241D01*
X-850337Y498215D01*
X-854763Y498215D01*
X-854763Y499616D02*
X-850337Y499616D01*
X-850337Y501017D02*
X-854763Y501017D01*
X-854763Y502418D02*
X-850337Y502418D01*
X-850337Y503819D02*
X-854763Y503819D01*
X-854763Y505220D02*
X-850337Y505220D01*
X-850337Y506621D02*
X-854763Y506621D01*
X-854763Y508022D02*
X-850337Y508022D01*
X-850337Y509423D02*
X-854763Y509423D01*
X-854763Y510824D02*
X-850337Y510824D01*
X-850337Y512225D02*
X-854763Y512225D01*
X-854763Y513626D02*
X-850337Y513626D01*
X-850337Y515027D02*
X-854763Y515027D01*
X-854763Y516428D02*
X-850337Y516428D01*
X-842063Y517241D02*
X-842063Y498215D01*
X-842063Y517241D02*
X-837637Y517241D01*
X-837637Y498215D01*
X-842063Y498215D01*
X-842063Y499616D02*
X-837637Y499616D01*
X-837637Y501017D02*
X-842063Y501017D01*
X-842063Y502418D02*
X-837637Y502418D01*
X-837637Y503819D02*
X-842063Y503819D01*
X-842063Y505220D02*
X-837637Y505220D01*
X-837637Y506621D02*
X-842063Y506621D01*
X-842063Y508022D02*
X-837637Y508022D01*
X-837637Y509423D02*
X-842063Y509423D01*
X-842063Y510824D02*
X-837637Y510824D01*
X-837637Y512225D02*
X-842063Y512225D01*
X-842063Y513626D02*
X-837637Y513626D01*
X-837637Y515027D02*
X-842063Y515027D01*
X-842063Y516428D02*
X-837637Y516428D01*
X-829363Y517241D02*
X-829363Y498215D01*
X-829363Y517241D02*
X-824937Y517241D01*
X-824937Y498215D01*
X-829363Y498215D01*
X-829363Y499616D02*
X-824937Y499616D01*
X-824937Y501017D02*
X-829363Y501017D01*
X-829363Y502418D02*
X-824937Y502418D01*
X-824937Y503819D02*
X-829363Y503819D01*
X-829363Y505220D02*
X-824937Y505220D01*
X-824937Y506621D02*
X-829363Y506621D01*
X-829363Y508022D02*
X-824937Y508022D01*
X-824937Y509423D02*
X-829363Y509423D01*
X-829363Y510824D02*
X-824937Y510824D01*
X-824937Y512225D02*
X-829363Y512225D01*
X-829363Y513626D02*
X-824937Y513626D01*
X-824937Y515027D02*
X-829363Y515027D01*
X-829363Y516428D02*
X-824937Y516428D01*
X-816663Y517241D02*
X-816663Y498215D01*
X-816663Y517241D02*
X-812237Y517241D01*
X-812237Y498215D01*
X-816663Y498215D01*
X-816663Y499616D02*
X-812237Y499616D01*
X-812237Y501017D02*
X-816663Y501017D01*
X-816663Y502418D02*
X-812237Y502418D01*
X-812237Y503819D02*
X-816663Y503819D01*
X-816663Y505220D02*
X-812237Y505220D01*
X-812237Y506621D02*
X-816663Y506621D01*
X-816663Y508022D02*
X-812237Y508022D01*
X-812237Y509423D02*
X-816663Y509423D01*
X-816663Y510824D02*
X-812237Y510824D01*
X-812237Y512225D02*
X-816663Y512225D01*
X-816663Y513626D02*
X-812237Y513626D01*
X-812237Y515027D02*
X-816663Y515027D01*
X-816663Y516428D02*
X-812237Y516428D01*
X-803963Y517241D02*
X-803963Y498215D01*
X-803963Y517241D02*
X-799537Y517241D01*
X-799537Y498215D01*
X-803963Y498215D01*
X-803963Y499616D02*
X-799537Y499616D01*
X-799537Y501017D02*
X-803963Y501017D01*
X-803963Y502418D02*
X-799537Y502418D01*
X-799537Y503819D02*
X-803963Y503819D01*
X-803963Y505220D02*
X-799537Y505220D01*
X-799537Y506621D02*
X-803963Y506621D01*
X-803963Y508022D02*
X-799537Y508022D01*
X-799537Y509423D02*
X-803963Y509423D01*
X-803963Y510824D02*
X-799537Y510824D01*
X-799537Y512225D02*
X-803963Y512225D01*
X-803963Y513626D02*
X-799537Y513626D01*
X-799537Y515027D02*
X-803963Y515027D01*
X-803963Y516428D02*
X-799537Y516428D01*
D17*
X-824800Y641200D03*
X-803800Y641200D03*
D10*
X-820800Y623100D03*
X-807800Y623100D03*
X-820800Y475000D03*
X-807800Y475000D03*
D38*
X-755100Y509400D03*
X-755100Y531400D03*
D15*
X-776100Y511400D03*
X-776100Y524400D03*
X-775100Y602300D03*
X-775100Y615300D03*
D39*
X-20922Y159922D03*
X-20922Y215922D03*
D40*
X-57672Y172922D03*
X-57672Y182922D03*
X-57672Y192922D03*
X-57672Y202922D03*
D15*
X-1303600Y511400D03*
X-1303600Y498400D03*
X-1244100Y405300D03*
X-1244100Y418300D03*
X-1175100Y405500D03*
X-1175100Y418500D03*
X-973100Y262700D03*
X-973100Y249700D03*
X-1201100Y405900D03*
X-1201100Y418900D03*
X-1599530Y1010100D03*
X-1599530Y997100D03*
D41*
X-1201100Y365200D03*
X-1201100Y380200D03*
X-1175100Y365100D03*
X-1175100Y380100D03*
X-1244100Y365000D03*
X-1244100Y380000D03*
X-1285480Y512400D03*
X-1285480Y497400D03*
D42*
X-952600Y228300D03*
X-937600Y228300D03*
X-1572600Y990200D03*
X-1557600Y990200D03*
D43*
X-1248650Y587900D03*
X-1233950Y587900D03*
X-1248650Y568700D03*
X-1233950Y568700D03*
D44*
X-1276100Y595700D02*
X-1284400Y595700D01*
X-1284400Y599000D01*
X-1276100Y599000D01*
X-1276100Y595700D01*
X-1276100Y596745D02*
X-1284400Y596745D01*
X-1284400Y597790D02*
X-1276100Y597790D01*
X-1276100Y598835D02*
X-1284400Y598835D01*
X-1284400Y583000D02*
X-1276100Y583000D01*
X-1284400Y583000D02*
X-1284400Y586300D01*
X-1276100Y586300D01*
X-1276100Y583000D01*
X-1276100Y584045D02*
X-1284400Y584045D01*
X-1284400Y585090D02*
X-1276100Y585090D01*
X-1276100Y586135D02*
X-1284400Y586135D01*
X-1284400Y570300D02*
X-1276100Y570300D01*
X-1284400Y570300D02*
X-1284400Y573600D01*
X-1276100Y573600D01*
X-1276100Y570300D01*
X-1276100Y571345D02*
X-1284400Y571345D01*
X-1284400Y572390D02*
X-1276100Y572390D01*
X-1276100Y573435D02*
X-1284400Y573435D01*
X-1284400Y557600D02*
X-1276100Y557600D01*
X-1284400Y557600D02*
X-1284400Y560900D01*
X-1276100Y560900D01*
X-1276100Y557600D01*
X-1276100Y558645D02*
X-1284400Y558645D01*
X-1284400Y559690D02*
X-1276100Y559690D01*
X-1276100Y560735D02*
X-1284400Y560735D01*
X-1206500Y557600D02*
X-1198200Y557600D01*
X-1206500Y557600D02*
X-1206500Y560900D01*
X-1198200Y560900D01*
X-1198200Y557600D01*
X-1198200Y558645D02*
X-1206500Y558645D01*
X-1206500Y559690D02*
X-1198200Y559690D01*
X-1198200Y560735D02*
X-1206500Y560735D01*
X-1206500Y570300D02*
X-1198200Y570300D01*
X-1206500Y570300D02*
X-1206500Y573600D01*
X-1198200Y573600D01*
X-1198200Y570300D01*
X-1198200Y571345D02*
X-1206500Y571345D01*
X-1206500Y572390D02*
X-1198200Y572390D01*
X-1198200Y573435D02*
X-1206500Y573435D01*
X-1206500Y583000D02*
X-1198200Y583000D01*
X-1206500Y583000D02*
X-1206500Y586300D01*
X-1198200Y586300D01*
X-1198200Y583000D01*
X-1198200Y584045D02*
X-1206500Y584045D01*
X-1206500Y585090D02*
X-1198200Y585090D01*
X-1198200Y586135D02*
X-1206500Y586135D01*
X-1206500Y595700D02*
X-1198200Y595700D01*
X-1206500Y595700D02*
X-1206500Y599000D01*
X-1198200Y599000D01*
X-1198200Y595700D01*
X-1198200Y596745D02*
X-1206500Y596745D01*
X-1206500Y597790D02*
X-1198200Y597790D01*
X-1198200Y598835D02*
X-1206500Y598835D01*
M02*
