M48
;GenerationSoftware,Autodesk,EAGLE,9.7.0*%
;CreationDate,2025-04-05T21:30:34Z*%
FMAT,2
ICI,OFF
METRIC,TZ,000.000
T2C0.300
T1C0.650
%
G90
M71
T1
X-5522Y56735
X-5522Y50955
T2
X-19875Y53599
X-15789Y51730
X-148334Y54777
X-129982Y54500
X-20706Y54777
X-5609Y52491
X-15443Y54569
X-5609Y54569
X-15443Y53045
X-5609Y53115
X-15581Y55400
X-5609Y55400
X-30193Y52907
X-75829Y49721
X-78530Y47021
X-144871Y50829
X-19875Y54915
X-76937Y58239
X-78045Y59347
X-128805Y64887
X-33586Y48683
X-44389Y46120
X-44389Y44458
X-149372Y107684
X-119525Y104498
X-6856Y18282
X-36079Y43974
X-96327Y24999
X-118348Y41758
X-78045Y53253
X-119595Y65164
X-159137Y101036
X-156228Y98196
X-162599Y88086
X-158790Y50483
X-87117Y14889
X-115509Y29362
X-147156Y55192
X-121118Y56162
X-161976Y88086
X-155397Y53946
X-117448Y39057
X-116201Y39057
X-86632Y16482
X-122226Y29777
X-120218Y56577
X-127420Y42866
X-141132Y47090
X-165231Y91202
X-154912Y47575
X-162945Y93349
X-160245Y67380
X-128666Y57754
X-127420Y43489
X-120149Y31647
X-120149Y38919
X-148334Y62671
X-130051Y59070
X-91479Y107545
X-84000Y30331
X-98612Y26869
X-92149Y31342
X-89748Y34348
X-81784Y27423
X-80192Y26869
X-89402Y21883
X-75621Y31993
X-87393Y20498
X-80953Y14889
X-99997Y16066
X-81507Y16482
X-97088Y17105
X-42035Y55400
X-39126Y55331
X-158790Y49860
X-121395Y102144
X-146256Y55469
X-114470Y58655
X-86216Y56023
X-136215Y64610
X-80122Y58655
X-86355Y13157
X-125065Y30262
X-149788Y58239
X-125758Y29639
X-85455Y16482
X-121049Y26246
X-156436Y47090
X-131506Y18975
X-85593Y17590
X-92864Y22645
X-92310Y26661
X-148818Y47575
X-132545Y31093
X-97642Y22645
X-98889Y22714
X-127558Y32755
X-128320Y59139
X-129497Y50968
X-145494Y51522
X-145841Y65095
X-105814Y108099
X-147987Y65095
X-15373Y12396
X-148818Y65095
X-132545Y37741
X-94526Y26315
X-29708Y56785
X-6856Y19598
X-148334Y63779
X-81715Y52214
X-76937Y49237
X-78530Y47644
X-30193Y57754
X-6440Y20983
X-14404Y3809
X-11634Y12950
X-149095Y67380
X-84624Y61286
X-76937Y57616
X-78045Y57408
X-79638Y11911
X-129497Y11911
X-152627Y65095
X-152627Y56646
X-152004Y56023
X-150688Y42589
X-150550Y47575
X-82477Y14889
X-94111Y15789
X-81992Y14127
X-93487Y15789
X-78530Y48267
X-81715Y48336
X-119525Y108099
X-80815Y51937
M30